PathFileType	4	(x/y/z)	S08_PSF_T05
DataRate	CameraRate	NumFrames	NumMarkers	Units	OrigDataRate	OrigDataStartFrame	OrigNumFrames
240	240	10	51	mm	240	105	418
Frame#	Time	Sternum			R.Acromium			L.Acromium			Top.Head			R.ASIS			L.ASIS			R.PSIS			L.PSIS			R.Great.Tro			L.Great.Tro			R.Iliac.Crest			L.Iliac.Crest			V.Sacral			R.Thigh.Upper.Post			R.Thigh.Lower.Ant			R.Thigh.Lower.Post			R.Thigh.Upper.Ant			R.Knee.Lat			R.Knee.Med			R.Shank.Upper.Post			R.Shank.Lower.Ant			R.Shank.Lower.Post			R.Shank.Upper.Ant			R.Ankle.Lat			R.Ankle.Med			R.Heel.Upper			R.Heel.Med			R.Heel.Lat			R.Toe.Lat			R.Toe.Med			R.Toe.Tip			L.Thigh.Upper.Post			L.Thigh.Lower.Ant			L.Thigh.Lower.Post			L.Thigh.Upper.Ant			L.Knee.Lat			L.Knee.Med			L.Shank.Upper.Post			L.Shank.Lower.Ant			L.Shank.Lower.Post			L.Shank.Upper.Ant			L.Ankle.Lat			L.Ankle.Med			L.Heel.Upper			L.Heel.Med			L.Heel.Lat			L.Toe.Lat			L.Toe.Med			L.Toe.Tip			Cervical.Spine			Back			
		X1	Y1	Z1	X2	Y2	Z2	X3	Y3	Z3	X4	Y4	Z4	X5	Y5	Z5	X6	Y6	Z6	X7	Y7	Z7	X8	Y8	Z8	X9	Y9	Z9	X10	Y10	Z10	X11	Y11	Z11	X12	Y12	Z12	X13	Y13	Z13	X14	Y14	Z14	X15	Y15	Z15	X16	Y16	Z16	X17	Y17	Z17	X18	Y18	Z18	X19	Y19	Z19	X20	Y20	Z20	X21	Y21	Z21	X22	Y22	Z22	X23	Y23	Z23	X24	Y24	Z24	X25	Y25	Z25	X26	Y26	Z26	X27	Y27	Z27	X28	Y28	Z28	X29	Y29	Z29	X30	Y30	Z30	X31	Y31	Z31	X32	Y32	Z32	X33	Y33	Z33	X34	Y34	Z34	X35	Y35	Z35	X36	Y36	Z36	X37	Y37	Z37	X38	Y38	Z38	X39	Y39	Z39	X40	Y40	Z40	X41	Y41	Z41	X42	Y42	Z42	X43	Y43	Z43	X44	Y44	Z44	X45	Y45	Z45	X46	Y46	Z46	X47	Y47	Z47	X48	Y48	Z48	X49	Y49	Z49	X50	Y50	Z50	X51	Y51	Z51	

105	0.43333	-811.46	1225.3	294.91	-930.11	1463.7	468.26	-935.4	1494.7	135.41	-912.08	1781.3	316.11	-830.97	1013.5	399.21	-833.5	1016.2	169.6	NaN	NaN	NaN	-1033.7	1039.9	238.79	-882.82	906.13	471.99	-941.12	911.46	105.77	-928.08	1078.6	451.08	-931.36	1097.1	143.42	-1051.5	996.99	285.04	-820.5	714.6	460.27	-712.33	653.5	423.11	-779.71	634.13	440.21	-748.06	740.29	440.84	-704.67	553.11	418.88	-737.28	541.87	295.5	-738.26	363.53	433.56	-669.18	310.14	411.25	-727.46	287.39	428.28	-679.81	387.66	420.1	-702.74	118.09	396.58	-674.28	138.56	318.62	-742.34	73.105	348	-721.85	49.774	321.5	-731.72	50.554	382.52	NaN	NaN	NaN	-542.93	90.948	317.52	-485.54	122.67	363.75	-990.77	718.32	123.92	-922.06	614.95	150.47	-987.67	629.35	141.54	-919.91	700.82	124.29	-999.7	519.77	169.41	-994.62	522.06	294.54	-1093.6	354.66	174.18	-1045.7	256.92	200.13	-1109.5	284.8	191.94	-1037	328.91	182.31	-1123.1	105.17	220.02	-1095.9	112.87	306.73	-1176.9	78.611	270.73	-1165.2	44.588	300.74	-1170.9	52.594	237.07	-995.95	36.946	200.96	-976.87	43.143	315.82	-912.25	56.346	266.09	-997.98	1520.8	292.51	-1048.7	1237.6	302.66
106	0.4375	-805.99	1224.3	294.96	-924.51	1462.8	468.34	-929.79	1493.9	135.51	-906.54	1780.4	316.21	-825.38	1012.6	399.25	-828.03	1015.3	169.88	NaN	NaN	NaN	-1028.2	1039.2	239.12	-877.47	905.19	472.13	-936.1	910.83	105.78	-922.27	1077.7	451.23	-925.97	1096.3	143.57	-1046	996.22	285.26	-816.11	713.26	460.58	-708.14	651.92	423.26	-775.54	632.71	440.46	-743.61	738.78	441.07	-700.3	551.76	418.85	-733.1	540.36	295.48	-729.87	361.56	433.18	-659.58	309.81	410.59	-717.33	285.68	427.63	-671.98	387.07	419.74	-688.32	116.89	395.28	-660.52	138.27	317.34	-726.94	71.072	346.62	-705.83	48.244	320.01	-715.58	48.625	381.05	NaN	NaN	NaN	-527.98	93.981	315.82	-471.28	127.01	362.07	-986.69	718.1	123.84	-918.56	614.36	150.4	-984.03	629.14	141.46	-916	700.21	124.23	-996.81	519.55	169.39	-991.56	521.79	294.53	-1091.7	355.05	174.16	-1044.5	256.96	200.07	-1108.1	285.23	191.96	-1035.5	328.77	182.42	-1122.6	105.59	220.05	-1095.5	113.18	306.78	-1176.7	78.947	270.76	-1165.1	44.963	300.84	-1170.8	52.848	237.17	-995.94	36.855	200.95	-976.74	43.078	315.79	-912.1	56.08	266.05	-992.4	1519.9	292.55	-1043.2	1236.7	302.74
107	0.44167	-800.49	1223.4	295.02	-918.89	1461.9	468.43	-924.18	1493	135.61	-901	1779.4	316.32	-819.76	1011.7	399.3	-822.55	1014.4	170.12	NaN	NaN	NaN	-1022.7	1038.5	239.46	-872.08	904.25	472.26	-931.05	910.2	105.78	-916.45	1076.7	451.38	-920.55	1095.4	143.71	-1040.5	995.43	285.48	-811.7	711.91	460.9	-703.95	650.28	423.42	-771.38	631.26	440.72	-739.15	737.24	441.33	-695.98	550.35	418.84	-728.98	538.82	295.47	-721.62	359.64	432.78	-650.18	309.53	409.94	-707.38	284.06	426.97	-664.3	386.48	419.38	-674.16	115.85	393.97	-647.04	138.12	316.05	-711.79	69.248	345.2	-690.09	46.928	318.49	-699.72	46.902	379.56	NaN	NaN	NaN	-513.38	97.108	314.13	-457.4	131.41	360.43	-982.55	717.86	123.77	-914.99	613.77	150.33	-980.35	628.91	141.41	-912.04	699.59	124.16	-993.84	519.32	169.38	-988.43	521.51	294.54	-1089.8	355.45	174.15	-1043.2	257.01	200.02	-1106.8	285.64	192.05	-1034	328.63	182.55	-1122	106.04	220.1	-1095	113.51	306.83	-1176.6	79.329	270.79	-1165	45.385	300.94	-1170.7	53.148	237.27	-995.93	36.769	200.94	-976.6	43.012	315.76	-911.94	55.807	266	-986.8	1519	292.61	-1037.6	1235.8	302.84
108	0.44583	-794.97	1222.4	295.1	-913.25	1461	468.54	-918.55	1492.1	135.73	-895.47	1778.5	316.44	-814.11	1010.7	399.36	-817.07	1013.5	170.34	NaN	NaN	NaN	-1017.1	1037.8	239.81	-866.66	903.3	472.4	-925.96	909.55	105.78	-910.62	1075.8	451.53	-915.09	1094.6	143.85	-1034.9	994.63	285.7	-807.28	710.54	461.23	-699.76	648.62	423.6	-767.22	629.8	440.99	-734.66	735.67	441.62	-691.69	548.91	418.82	-724.89	537.25	295.44	-713.51	357.76	432.37	-640.98	309.28	409.3	-697.61	282.51	426.3	-656.77	385.9	419.04	-660.28	114.96	392.65	-633.85	138.12	314.77	-696.94	67.621	343.77	-674.65	45.811	316.95	-684.17	45.374	378.04	NaN	NaN	NaN	-499.14	100.3	312.48	-443.92	135.81	358.83	-978.38	717.6	123.72	-911.36	613.17	150.28	-976.64	628.66	141.38	-908.02	698.97	124.11	-990.8	519.08	169.4	-985.21	521.22	294.56	-1087.8	355.87	174.15	-1041.9	257.07	199.97	-1105.5	286.03	192.19	-1032.5	328.5	182.68	-1121.5	106.54	220.15	-1094.6	113.86	306.88	-1176.4	79.761	270.82	-1164.8	45.856	301.05	-1170.7	53.501	237.38	-995.91	36.689	200.94	-976.46	42.944	315.74	-911.77	55.525	265.96	-981.19	1518	292.69	-1032	1234.9	302.94
109	0.45	-789.42	1221.5	295.19	-907.6	1460.1	468.66	-912.91	1491.2	135.86	-889.94	1777.6	316.56	-808.43	1009.8	399.42	-811.57	1012.5	170.52	NaN	NaN	NaN	-1011.5	1037.1	240.16	-861.18	902.34	472.53	-920.85	908.9	105.77	-904.78	1074.8	451.68	-909.61	1093.7	144	-1029.3	993.82	285.93	-802.82	709.17	461.56	-695.54	646.93	423.78	-763.04	628.34	441.25	-730.13	734.09	441.93	-687.42	547.43	418.82	-720.84	535.67	295.41	-705.55	355.94	431.95	-631.98	309.06	408.67	-688.05	281.03	425.62	-649.39	385.33	418.71	-646.72	114.21	391.31	-620.98	138.24	313.5	-682.42	66.182	342.32	-659.56	44.879	315.39	-668.97	44.029	376.5	NaN	NaN	NaN	-485.3	103.53	310.86	-430.85	140.2	357.28	-974.17	717.32	123.7	-907.67	612.56	150.23	-972.89	628.39	141.39	-903.96	698.34	124.06	-987.67	518.84	169.42	-981.9	520.92	294.6	-1085.7	356.31	174.16	-1040.5	257.14	199.95	-1104.2	286.41	192.39	-1030.8	328.37	182.83	-1120.9	107.08	220.22	-1094.1	114.25	306.93	-1176.2	80.248	270.86	-1164.6	46.379	301.16	-1170.6	53.911	237.5	-995.89	36.614	200.95	-976.32	42.873	315.72	-911.59	55.231	265.93	-975.56	1517.1	292.79	-1026.4	1234	303.06
110	0.45417	-783.86	1220.5	295.3	-901.94	1459.1	468.8	-907.25	1490.3	136.01	-884.41	1776.6	316.69	-802.72	1008.9	399.48	-806.07	1011.6	170.66	-1008.5	1029.7	334.21	-1006	1036.3	240.52	-855.66	901.38	472.66	-915.7	908.24	105.76	-898.94	1073.9	451.84	-904.1	1092.9	144.15	-1023.7	993	286.15	-798.33	707.8	461.88	-691.3	645.23	423.96	-758.84	626.87	441.51	-725.55	732.49	442.27	-683.17	545.93	418.81	-716.8	534.09	295.38	-697.74	354.16	431.51	-623.19	308.86	408.04	-678.69	279.62	424.93	-642.16	384.75	418.38	-633.51	113.58	389.97	-608.44	138.46	312.23	-668.25	64.914	340.84	-644.85	44.114	313.82	-654.15	42.852	374.95	NaN	NaN	NaN	-471.86	106.76	309.3	-418.21	144.53	355.8	-969.91	717.03	123.71	-903.91	611.95	150.19	-969.1	628.09	141.44	-899.84	697.7	124.02	-984.46	518.58	169.47	-978.5	520.6	294.66	-1083.5	356.75	174.18	-1039.1	257.22	199.94	-1102.9	286.79	192.66	-1029.1	328.26	182.98	-1120.3	107.66	220.31	-1093.6	114.66	306.98	-1176	80.794	270.89	-1164.5	46.957	301.27	-1170.5	54.385	237.62	-995.87	36.547	200.96	-976.17	42.798	315.72	-911.41	54.926	265.91	-969.92	1516.2	292.91	-1020.7	1233.1	303.2
111	0.45833	-778.27	1219.6	295.42	-896.26	1458.2	468.95	-901.57	1489.4	136.16	-878.88	1775.7	316.83	-796.98	1007.9	399.55	-800.56	1010.6	170.74	-1003.4	1028.9	334.42	-1000.3	1035.6	240.88	-850.09	900.41	472.79	-910.53	907.57	105.76	-893.09	1072.9	452	-898.56	1092	144.3	-1018.1	992.18	286.38	-793.77	706.44	462.19	-687	643.52	424.15	-754.61	625.41	441.76	-720.91	730.88	442.62	-678.91	544.42	418.8	-712.76	532.51	295.33	-690.08	352.44	431.06	-614.62	308.67	407.43	-669.57	278.28	424.22	-635.07	384.18	418.07	-620.68	113.06	388.62	-596.26	138.77	310.97	-654.47	63.804	339.36	-630.54	43.498	312.24	-639.77	41.827	373.39	NaN	NaN	NaN	-458.86	109.96	307.81	-406.01	148.77	354.39	-965.62	716.72	123.75	-900.08	611.34	150.16	-965.26	627.77	141.53	-895.67	697.06	124	-981.16	518.32	169.53	-975	520.28	294.73	-1081.3	357.21	174.22	-1037.6	257.31	199.94	-1101.6	287.16	192.96	-1027.3	328.16	183.15	-1119.7	108.29	220.41	-1093.1	115.1	307.03	-1175.8	81.401	270.93	-1164.3	47.593	301.38	-1170.4	54.926	237.74	-995.84	36.487	200.97	-976.02	42.721	315.72	-911.22	54.607	265.89	-964.27	1515.3	293.05	-1015.1	1232.1	303.34
112	0.4625	-772.65	1218.6	295.56	-890.57	1457.2	469.12	-895.88	1488.5	136.33	-873.36	1774.7	316.98	-791.21	1007	399.62	-795.07	1009.7	170.77	-998.15	1028.1	334.64	-994.68	1034.8	241.24	-844.46	899.45	472.92	-905.32	906.9	105.75	-887.24	1072	452.17	-893	1091.1	144.46	-1012.4	991.35	286.61	-789.16	705.1	462.48	-682.65	641.82	424.32	-750.33	623.96	441.99	-716.2	729.28	442.98	-674.63	542.91	418.79	-708.7	530.95	295.27	-682.59	350.77	430.58	-606.27	308.48	406.82	-660.67	277	423.51	-628.13	383.6	417.75	-608.25	112.62	387.28	-584.45	139.15	309.73	-641.12	62.835	337.86	-616.69	43.01	310.66	-625.84	40.938	371.82	NaN	NaN	NaN	-446.3	113.1	306.38	-394.26	152.88	353.06	-961.29	716.39	123.82	-896.18	610.73	150.14	-961.39	627.43	141.66	-891.43	696.42	123.99	-977.76	518.05	169.62	-971.4	519.94	294.82	-1079	357.69	174.28	-1036	257.42	199.97	-1100.2	287.55	193.32	-1025.4	328.08	183.32	-1119	108.96	220.52	-1092.5	115.56	307.08	-1175.6	82.074	270.96	-1164.1	48.291	301.49	-1170.2	55.54	237.86	-995.8	36.434	201	-975.86	42.642	315.73	-911.02	54.273	265.88	-958.61	1514.3	293.21	-1009.4	1231.2	303.5
113	0.46667	-767.01	1217.7	295.72	-884.86	1456.3	469.3	-890.17	1487.5	136.51	-867.85	1773.8	317.15	-785.4	1006.1	399.7	-789.58	1008.7	170.72	-992.67	1027.2	334.87	-989.01	1034	241.6	-838.78	898.49	473.04	-900.08	906.22	105.75	-881.38	1071.1	452.33	-887.41	1090.3	144.61	-1006.7	990.51	286.85	-784.48	703.78	462.75	-678.23	640.13	424.49	-745.98	622.54	442.2	-711.42	727.69	443.35	-670.32	541.41	418.77	-704.6	529.42	295.2	-675.26	349.15	430.09	-598.15	308.27	406.21	-652.02	275.78	422.78	-621.33	383.01	417.44	-596.26	112.26	385.93	-573.04	139.56	308.51	-628.23	61.988	336.35	-603.31	42.629	309.09	-612.42	40.166	370.24	NaN	NaN	NaN	-434.22	116.12	305.02	-382.99	156.82	351.82	-956.91	716.04	123.94	-892.21	610.11	150.13	-957.47	627.06	141.83	-887.14	695.78	123.99	-974.28	517.78	169.72	-967.7	519.59	294.93	-1076.7	358.17	174.35	-1034.4	257.53	200.02	-1098.8	287.96	193.7	-1023.4	328.01	183.49	-1118.4	109.68	220.65	-1091.9	116.06	307.13	-1175.3	82.817	270.99	-1163.9	49.052	301.6	-1170.1	56.23	237.99	-995.76	36.39	201.03	-975.69	42.561	315.75	-910.8	53.925	265.88	-952.93	1513.4	293.39	-1003.7	1230.2	303.67
114	0.47083	-761.34	1216.7	295.89	-879.14	1455.3	469.51	-884.43	1486.6	136.71	-862.34	1772.9	317.32	-779.57	1005.2	399.78	-784.09	1007.7	170.61	-987.03	1026.4	335.12	-983.31	1033.3	241.96	-833.05	897.53	473.16	-894.82	905.54	105.76	-875.51	1070.1	452.5	-881.8	1089.4	144.78	-1001	989.66	287.1	-779.72	702.48	462.99	-673.74	638.47	424.64	-741.57	621.14	442.39	-706.55	726.13	443.71	-665.96	539.92	418.74	-700.45	527.92	295.12	-668.08	347.58	429.57	-590.25	308.04	405.61	-643.61	274.6	422.04	-614.66	382.41	417.13	-584.74	111.94	384.6	-562.04	140	307.3	-615.83	61.244	334.84	-590.46	42.334	307.54	-599.54	39.492	368.67	NaN	NaN	NaN	-422.62	119.01	303.75	-372.2	160.55	350.67	-952.49	715.68	124.08	-888.15	609.5	150.14	-953.5	626.68	142.04	-882.78	695.14	124.01	-970.7	517.49	169.84	-963.89	519.23	295.06	-1074.2	358.67	174.45	-1032.8	257.65	200.08	-1097.3	288.4	194.11	-1021.3	327.97	183.67	-1117.8	110.44	220.79	-1091.3	116.6	307.18	-1175	83.631	271.02	-1163.6	49.882	301.71	-1169.9	57	238.12	-995.71	36.354	201.07	-975.52	42.48	315.77	-910.58	53.56	265.89	-947.24	1512.5	293.59	-997.94	1229.3	303.85
